<?xml version="1.0" encoding="UTF-8"?>
<svg id="_레이어_2" data-name="레이어 2" xmlns="http://www.w3.org/2000/svg" viewBox="0 0 365.79 71.56">
  <defs>
    <style>
      .cls-1 {
        fill: #e60012;
      }
    </style>
  </defs>
  <g id="_레이어_1-2" data-name="레이어 1">
    <g>
      <path class="cls-1" d="M49.6,56.58l-10.8-43.22h2.46V0H12.97v13.36h2.39L4.85,56.58H0v14.14h21.61v-14.14h-4.41l1.52-6.68h11.82l1.67,6.68h-4.32v14.14h25.93v-14.14h-4.22ZM21.5,37.72l2.86-12.57,3.14,12.57h-6.01Z"/>
      <path class="cls-1" d="M274.88,54.23l-8.44-33.46h1.91v-10.17h-22.09v10.17h1.87l-8.2,33.46h-3.79v10.46h16.88v-10.46h-3.44l1.18-5.64h9.24l1.29,5.64h-3.37v10.46h20.25v-10.46h-3.3ZM252.93,39.32l2.23-9.57,2.46,9.57h-4.68Z"/>
      <path class="cls-1" d="M95.08,35.56c3.14-2.36,9.04-3.73,9.04-15.91C104.12,1.57,85.65.39,85.65.39h-28.68v14.14h3.93v43.22h-3.93v12.97h28.68s18.47-1.18,18.47-19.25c0-12.18-5.89-13.56-9.04-15.91ZM81.33,57.36c-.83,0-1.62-.25-2.36-.59v-15.33c.74-.34,1.52-.59,2.36-.59,3.69,0,6.68,3.7,6.68,8.25s-2.99,8.25-6.68,8.25ZM81.33,28.29c-.83,0-1.62-.21-2.36-.5v-13.14c.74-.29,1.52-.5,2.36-.5,3.69,0,6.68,3.17,6.68,7.07s-2.99,7.07-6.68,7.07Z"/>
      <path class="cls-1" d="M141.05,44.79s1.18,12.57-6.29,11.79c-7.47-.79-7.07-14.14-7.86-22-.79-7.86,1.57-19.25,8.64-18.86,5.51.31,5.89,9.04,5.5,12.97l.79-1.13v.74h10.21V2.36h-10.21v3.48c-2.46-2.58-5.57-5.49-11.89-5.49-8.64,0-22.68,7.9-22.68,35.01,0,11,5.5,34.97,23.57,36.15,18.07,1.18,23.18-17.29,23.18-24.75l-12.97-1.96Z"/>
      <rect class="cls-1" x="157.95" y="30.25" width="18.86" height="11.79"/>
      <polygon class="cls-1" points="227.88 21.22 231.81 21.22 231.81 10.22 212.17 10.22 207.06 31.43 200.77 10.22 179.16 10.22 179.16 21.22 183.09 21.22 183.09 54.23 179.95 54.23 179.95 64.68 196.45 64.68 196.45 54.23 192.52 54.23 192.52 27.25 202.74 64.68 205.49 64.68 214.13 31.04 214.92 30.48 214.92 54.23 210.99 54.23 210.99 64.68 231.42 64.68 231.42 54.23 227.49 54.23 227.49 21.5 227.88 21.22"/>
      <path class="cls-1" d="M319.43,54.23l-7.07-15.72c8.77-4.31,8.38-9.89,8.25-14.93-.23-8.72-6.68-13.36-20.82-13.36h-18.07v9.82h3.93v34.19h-3.93v10.46h20.04v-10.46h-2.75v-12.19l12.18,22.64h11.79v-10.46h-3.54ZM299,34.97v-13.75c1.18,0,7.46-.79,7.07,7.07-.39,7.86-7.07,6.68-7.07,6.68Z"/>
      <polygon class="cls-1" points="355.58 20.82 358.72 31.53 365.79 31.53 365.4 10.22 327.29 10.22 326.89 31.53 333.57 31.53 335.93 20.82 338.68 20.82 338.68 54.23 335.54 54.23 335.54 64.68 356.75 64.68 356.75 54.23 353.61 54.23 353.61 20.82 355.58 20.82"/>
    </g>
  </g>
</svg>