<?xml version="1.0" encoding="UTF-8"?>
<svg id="_레이어_2" data-name="레이어 2" xmlns="http://www.w3.org/2000/svg" viewBox="0 0 75.62 21.61">
  <defs>
    <style>
      .cls-1 {
        fill: #f8b62d;
      }

      .cls-2 {
        fill: #464b54;
      }
    </style>
  </defs>
  <g id="Layer_1" data-name="Layer 1">
    <g>
      <path class="cls-2" d="M75.62,21.18c-.24.08-1.56.44-2.96.44-3.13,0-4.79-1.34-4.79-4.19V.3h1.75c1.83,0,2.42,1.06,2.42,2.54v1.3h3.58v1.01c0,1.43-.99,2.24-2.47,2.24h-1.11v9.3c0,1.02.34,1.74,1.79,1.74.86,0,1.65-.25,1.79-.28,0,.35,0,3.03,0,3.03M64.77,6.92c.88,0,1.8.27,1.91.3v-3.07c-.15-.03-1.86-.4-3.49-.4-2.76,0-4.7,1.14-4.7,4.12v13.33h4.17v-12.51c0-1.1.7-1.77,2.11-1.77ZM40.81,8.58c0-1.71-.97-4.82-6.55-4.82-2.86,0-4.01.75-4.42,1.03-.42-.24-1.76-1.03-4.42-1.03-5.16,0-6.55,2.57-6.55,4.69v12.75h4.21v-12.47c0-.72.41-1.81,2.34-1.81,1.5,0,2.32.76,2.32,1.81v12.47h4.21v-12.47c0-1.05.8-1.81,2.31-1.81,1.65,0,2.34.84,2.34,1.81v9.61c0,1.88,1.1,2.95,2.84,2.95h1.37v-12.71ZM49.71,3.75c5.27,0,7.17,2.5,7.17,5.81v5.4c0,3.79-2.43,6.65-7.47,6.65s-7.45-2.26-7.45-5.31c0-2.43,1.65-4.04,5.24-5.02.52-.14,2.27-.67,3.07-.9,1.81-.53,2.4-.94,2.4-1.73,0-.83-1.01-1.73-3.06-1.73-2.45,0-3.22,1.51-3.24,2.61h-3.82c0-3.38,2.01-5.78,7.16-5.78ZM49.08,18.44c1.62,0,3.6-1.02,3.6-3.62v-2.04s-3.19.91-4.08,1.18c-1.59.48-2.36,1.29-2.36,2.35s.88,2.13,2.84,2.13Z"/>
      <path class="cls-1" d="M8.34,21.6C2.54,21.6,0,18.05,0,13.55v-4.86C0,2.44,4.17,0,9.06,0c5.91,0,8.49,3.21,8.49,6.43,0,4.69-4.8,5.84-6.92,6.46-.61.18-2.86.85-3.37.99-1.98.57-2.55,1.21-2.55,1.94,0,1.24,1.08,2.32,3.62,2.32,2.21,0,3.82-.75,4.09-3.06h4.62c-.48,3.65-2.67,6.53-8.71,6.53M8.87,3.48c-2.57,0-4.25,1.72-4.25,4.64v3.07s3.47-1.01,4.92-1.45c1.21-.37,3.39-1.14,3.39-3.06,0-1.67-1.35-3.21-4.07-3.21Z"/>
    </g>
  </g>
</svg>