<?xml version="1.0" encoding="UTF-8"?>
<svg id="_레이어_2" data-name="레이어 2" xmlns="http://www.w3.org/2000/svg" viewBox="0 0 151.62 73.83">
  <defs>
    <style>
      .cls-1 {
        fill: #221e1f;
      }

      .cls-2 {
        fill: #fff;
      }

      .cls-3 {
        fill: #009782;
      }

      .cls-4 {
        fill: #d99528;
      }
    </style>
  </defs>
  <g id="Layer_1" data-name="Layer 1">
    <g>
      <rect class="cls-3" width="87.41" height="40.88"/>
      <rect class="cls-4" x="109.29" width="42.32" height="40.88"/>
      <polygon points="108.9 0 87.81 0 87.41 0 87.41 40.88 87.81 40.88 108.9 40.88 109.29 40.88 109.29 0 108.9 0"/>
      <path class="cls-2" d="M57.11,24.04c-.02,1.52-.44,2.75-2.28,2.76h0c-1.84,0-2.26-1.24-2.29-2.76v-10.97h-2.02v10.98c0,2.44,1.37,4.37,4.31,4.38h0c2.93,0,4.31-1.93,4.31-4.38v-10.98h-2.03v10.97Z"/>
      <polygon class="cls-2" points="19.11 19.51 14.56 19.51 14.56 13.08 12.52 13.08 12.52 28.3 14.56 28.3 14.56 21.2 19.11 21.2 19.11 28.3 21.14 28.3 21.14 13.08 19.11 13.08 19.11 19.51"/>
      <polygon class="cls-2" points="78.22 23.93 74.16 13.08 71.14 13.08 71.14 28.3 73.14 28.3 73.14 15.44 78.03 28.3 80.2 28.3 80.2 13.08 78.22 13.08 78.22 23.93"/>
      <polygon class="cls-2" points="35.78 19.54 33.07 13.08 30.96 13.08 34.75 21.87 34.75 28.3 36.77 28.3 36.77 21.84 40.5 13.08 38.39 13.08 35.78 19.54"/>
      <rect class="cls-2" x="137.18" y="13.08" width="1.97" height="15.23"/>
      <path class="cls-2" d="M97.32,13.08h-3.23v15.23h3.24c1.7,0,3.09-.45,4.04-1.63.95-1.19,1.46-3.09,1.46-5.99s-.52-4.8-1.46-5.98c-.96-1.19-2.35-1.63-4.05-1.63M96.93,26.6h-.86v-11.84h.86c2.51.01,3.9.78,3.92,5.92-.02,5.15-1.41,5.89-3.92,5.92"/>
      <path class="cls-2" d="M118.14,13.08v.07s-3.63,15.14-3.63,15.14h2.04l.96-4.28h4l.96,4.28h2.04l-3.61-15.21h-2.75ZM117.79,22.3l1.7-7.62,1.71,7.62h-3.4Z"/>
      <rect class="cls-1" x="30.53" y="56.45" width="11.49" height="1.79"/>
      <path class="cls-1" d="M41.36,62.83c0-2.02-1.89-3.66-5.03-3.66-3.02,0-5.03,1.64-5.03,3.66.01,1.95,2,3.65,5.01,3.66,3.12,0,5.05-1.71,5.05-3.66M33.46,62.81c0-1.11.99-1.88,2.87-1.89,1.9.02,2.85.76,2.85,1.89-.01,1.13-.94,1.9-2.85,1.91-1.88,0-2.87-.76-2.87-1.91"/>
      <rect class="cls-1" x="33.23" y="53.23" width="6.24" height="1.8"/>
      <polygon class="cls-1" points="42.01 60.53 45.1 60.53 45.1 62.99 42.01 62.99 42.01 64.86 45.1 64.86 45.1 68.82 47.18 68.82 47.18 53.28 45.1 53.28 45.1 58.66 42.01 58.66 42.01 60.53"/>
      <polygon class="cls-1" points="36.31 67.65 34.17 67.65 34.17 73.83 47.73 73.83 47.73 71.95 36.31 71.95 36.31 67.65"/>
      <polygon class="cls-1" points="54.6 56.59 60.2 56.59 60.2 54.72 52.56 54.72 52.56 69.05 61.54 69.05 61.54 67.08 54.6 67.08 54.6 56.59"/>
      <polygon class="cls-1" points="66.56 60.78 64.21 60.78 64.21 53.63 62.17 53.63 62.17 73.27 64.21 73.27 64.21 62.88 66.56 62.88 66.56 73.83 68.61 73.83 68.61 53.28 66.56 53.28 66.56 60.78"/>
      <path class="cls-1" d="M102.51,69.47c.5-1.1.88-2.23.88-5.54v-.05h-1.78v.05c.02,1.44.01,3.05-.38,4.05l-3.8-4.17c2.28-1.36,3.43-2.43,3.43-4.46,0-2.47-1.85-4.21-4.52-4.21-2.41,0-4.37,1.94-4.37,4.31,0,1.29.68,2.5,2.32,4.14-2.02,1.09-3.36,2.32-3.36,4.7,0,3.06,2.23,5.04,5.68,5.04,1.94,0,3.75-.81,4.75-2.12l1.58,1.7h.02s2.67.01,2.67.01l-3.14-3.45ZM94.14,59.18c0-1.77,1.2-2.4,2.24-2.4,1.36,0,2.29,1.04,2.29,2.53,0,1.39-.7,2.33-2.4,3.24-1.82-1.75-2.14-2.41-2.14-3.38M95.52,64.77l4.74,5.14c-.58.84-1.9,1.67-3.59,1.67-2.15,0-3.53-1.22-3.53-3.13,0-1.62.77-2.82,2.38-3.68"/>
      <polygon class="cls-1" points="87.07 72.91 77.8 72.91 77.8 54.31 80.02 54.31 80.02 71.05 87.37 71.05 87.07 72.91"/>
      <path class="cls-1" d="M115.91,73.22c-2.01,0-3.99-.84-5.42-2.47-1.58-1.8-2.23-4.32-2.23-7.08,0-5.54,3.3-9.61,7.81-9.61,1.79,0,3.42.55,4.7,1.52l-1.19,1.44c-1.12-.82-2.17-1.17-3.53-1.17-2.14,0-3.69,1.11-4.58,3.2-.54,1.25-.78,2.74-.78,4.94,0,1.79.16,2.84.59,3.93.95,2.33,2.87,3.47,4.99,3.47,1.38,0,2.45-.35,3.64-1.19l1.19,1.49c-1.49.98-3.34,1.52-5.18,1.52"/>
    </g>
  </g>
</svg>