<?xml version="1.0" encoding="UTF-8"?>
<svg id="_레이어_2" data-name="레이어 2" xmlns="http://www.w3.org/2000/svg" viewBox="0 0 428.14 69.35">
  <defs>
    <style>
      .cls-1 {
        fill: #746661;
      }

      .cls-2 {
        fill: #aa2d29;
      }

      .cls-3 {
        fill: #fff;
      }
    </style>
  </defs>
  <g id="Layer_1" data-name="Layer 1">
    <g>
      <g>
        <path class="cls-1" d="M320.48,21.51h-6.85c-.66,0-1,.31-1,.93v26.65c-.81.27-1.79.47-2.96.6-1.06.12-2.14.18-3.21.2-1.15-.02-2.19-.15-3.09-.39-1-.27-1.85-.71-2.53-1.34-.68-.62-1.21-1.47-1.56-2.53-.36-1.07-.54-2.38-.54-3.93v-19.26c0-.62-.33-.93-.99-.93h-6.85c-.72,0-1.07.31-1.07.93v19.39c0,2.67.39,4.94,1.18,6.83.78,1.89,1.89,3.44,3.35,4.66,1.45,1.22,3.16,2.11,5.17,2.67,1.99.55,4.2.83,6.62.83,2.68,0,5.34-.18,7.98-.7,2.38-.46,4.59-1.12,6.63-1.96.52-.22.78-.62.78-1.2v-30.52c0-.62-.36-.93-1.07-.93Z"/>
        <path class="cls-1" d="M245.25,8.38h-7.2c-.66,0-1,.34-1,1v18.86h-19.46V9.38c0-.66-.34-1-1-1h-7.21c-.65,0-.99.34-.99,1v45.64c0,.67.34,1,.99,1h7.21c.66,0,1-.33,1-1v-19.39h19.46v19.39c0,.67.34,1,1,1h7.2c.67,0,1-.33,1-1V9.38c0-.66-.33-1-1-1Z"/>
        <path class="cls-1" d="M391.77,21.51h-6.78c-.71,0-1.06.31-1.06.93v24.25c-.81.4-1.77.74-2.89,1-1.93.46-4.07.45-5.99-.03-.97-.24-1.83-.63-2.57-1.16-.72-.54-1.32-1.25-1.78-2.13-.46-.89-.67-1.98-.67-3.27v-18.66c0-.62-.33-.93-1-.93h-6.86c-.71,0-1.06.31-1.06.93v18.99c0,2.31.44,4.31,1.35,6.01.91,1.68,2.07,3.09,3.51,4.22,1.41,1.13,3.04,1.98,4.88,2.53,2.02.62,4.07.83,6.17.83,1.33,0,2.65-.11,3.95-.34,1.08-.18,2.08-.41,3.04-.67.03,1.6-.12,2.94-.44,4.01-.33,1.11-.82,2-1.49,2.67-.66.67-1.5,1.13-2.5,1.4-.92.24-1.96.37-3.09.39-1.8-.04-3.43-.32-4.9-.86-1.21-.45-3.34-1.47-4.9-2.37-.43-.26-1.02-.16-1.32.25l-3.26,4.32c-.38.53-.32.98.22,1.33,1.84,1.42,3.87,2.47,6.09,3.16,2.76.86,5.65,1.04,8.51,1.03,5.47,0,9.49-1.29,12.05-3.89,2.56-2.6,3.86-6.48,3.86-11.63v-31.38c0-.62-.36-.93-1.08-.93Z"/>
        <path class="cls-1" d="M279.59,23.94c-1.31-1.08-2.88-1.89-4.71-2.43-.97-.28-1.97-.48-2.97-.61-3.83-.47-7.85-.25-11.57.74-2.36.62-4.39,1.49-6.1,2.6-.33.27-.33.65,0,1.13l3.14,4.45c.21.31.65.4.98.24,1.36-.68,3.56-1.55,4.87-1.89,1.49-.38,3.07-.57,4.77-.6,2.48.05,4.22.56,5.22,1.56,1.04,1.05,1.56,2.77,1.56,5.17v1.18c-.9-.1-1.84-.2-2.84-.29-1.24-.11-2.45-.17-3.64-.17-2.35,0-4.61.13-6.93.64-1.89.42-3.54,1.08-4.94,1.97-1.41.89-2.49,2.01-3.25,3.33-.76,1.33-1.14,2.91-1.14,4.73,0,2.08.43,3.84,1.32,5.26.87,1.43,2.05,2.56,3.52,3.43,1.48.86,3.17,1.49,5.06,1.86,2.21.44,4.42.56,6.65.56,2.65,0,5.25-.2,7.77-.6,2.52-.4,4.7-.87,6.56-1.4.52-.23.78-.6.78-1.14v-19.45c0-2.35-.36-4.39-1.06-6.1-.72-1.7-1.73-3.11-3.03-4.2ZM274.77,49.3c-.9.22-1.97.41-3.2.56-1.11.14-2.21.21-3.28.22-2.05-.03-3.77-.38-5.14-1.05-1.42-.71-2.14-1.85-2.14-3.4,0-1.38.58-2.45,1.72-3.23,1.08-.74,2.89-1.13,5.41-1.17,1.01,0,2.11.06,3.29.16,1.28.11,2.4.24,3.35.37v7.53Z"/>
        <path class="cls-1" d="M348.27,36.33c-1.57-.38-3.08-.7-4.56-.97-1.18-.22-2.27-.45-3.25-.67-.97-.22-1.81-.47-2.49-.77-.69-.29-1.22-.66-1.61-1.13-.37-.47-.56-1.03-.56-1.7,0-1.11.54-2,1.64-2.67,1.04-.64,2.57-.97,4.56-1,1.5.03,2.95.23,4.39.6,1.25.32,3.35,1.1,4.93,1.86.44.22,1.03.07,1.29-.35l2.87-4.51c.38-.58.26-1.02-.36-1.34-2.12-1.06-4.23-1.84-6.28-2.33-2.04-.49-4.08-.73-6.13-.73s-4.16.14-6.2.6c-1.8.4-3.42,1.03-4.85,1.87-1.43.85-2.56,1.92-3.42,3.23-.86,1.31-1.28,2.9-1.28,4.77,0,1.99.5,3.66,1.5,4.99,1,1.33,2.23,2.41,3.7,3.23,1.48.82,3.04,1.44,4.72,1.87,1.66.42,3.16.74,4.48.97.82.13,1.61.29,2.39.47.78.17,1.5.41,2.14.7.64.29,1.15.66,1.53,1.1.38.45.58,1,.58,1.66,0,1.29-.65,2.26-1.93,2.9-1.21.61-2.68.93-4.4.96-1.74-.03-3.47-.32-5.22-.86-1.54-.48-4-1.63-5.84-2.86-.41-.27-.95-.17-1.22.25l-2.92,4.67c-.38.57-.29,1.02.28,1.33,2.28,1.55,4.66,2.66,7.13,3.33,3.53.95,7.27,1.24,10.89.85,1.04-.11,2.04-.28,3.04-.52,1.83-.44,3.42-1.13,4.78-2.06,1.36-.93,2.43-2.08,3.22-3.46.78-1.38,1.17-3,1.17-4.87s-.41-3.47-1.25-4.7c-.83-1.22-1.89-2.22-3.17-3-1.29-.77-2.72-1.35-4.28-1.73Z"/>
        <path class="cls-1" d="M419.45,36.33c-1.58-.38-3.08-.7-4.56-.97-1.2-.22-2.27-.45-3.25-.67-.98-.22-1.81-.47-2.5-.77-.68-.29-1.22-.66-1.61-1.13-.37-.47-.56-1.03-.56-1.7,0-1.11.54-2,1.64-2.67,1.04-.64,2.57-.97,4.56-1,1.5.03,2.95.23,4.39.6,1.24.32,3.36,1.1,4.93,1.86.47.22,1.03.07,1.29-.35l2.88-4.51c.37-.58.25-1.02-.37-1.34-2.14-1.06-4.23-1.84-6.28-2.33-2.04-.49-4.08-.73-6.13-.73s-4.16.14-6.21.6c-1.8.4-3.42,1.03-4.84,1.87-1.43.85-2.57,1.92-3.42,3.23-.86,1.31-1.28,2.9-1.28,4.77,0,1.99.5,3.66,1.49,4.99,1,1.33,2.24,2.41,3.71,3.23,1.47.82,3.04,1.44,4.7,1.87,1.66.42,3.17.74,4.5.97.81.13,1.62.29,2.39.47.78.17,1.49.41,2.14.7.64.29,1.15.66,1.53,1.1.38.45.58,1,.58,1.66,0,1.29-.65,2.26-1.94,2.9-1.21.61-2.68.93-4.4.96-1.74-.03-3.47-.32-5.22-.86-1.54-.48-4.01-1.63-5.84-2.86-.41-.27-.96-.17-1.21.25l-2.92,4.67c-.38.57-.28,1.02.28,1.33,2.28,1.55,4.66,2.66,7.12,3.33,3.55.95,7.28,1.24,10.9.85,1.03-.11,2.04-.28,3.04-.52,1.83-.44,3.42-1.13,4.78-2.06,1.36-.93,2.42-2.08,3.21-3.46.78-1.38,1.17-3,1.17-4.87s-.42-3.47-1.25-4.7c-.84-1.22-1.89-2.22-3.17-3-1.29-.77-2.71-1.35-4.28-1.73Z"/>
      </g>
      <g>
        <path class="cls-1" d="M148.43,10.42c-.95-1.13-2.92-2.05-4.4-2.05h-9.52c-.5,0-.79.66-.48,1.03l17.14,20.44,6.78-8.06s-4.99-5.95-9.52-11.35"/>
        <path class="cls-1" d="M148.41,54l11.52-13.73,11.52,13.73c.95,1.13,2.92,2.05,4.39,2.05h9.53c.5,0,.78-.67.47-1.03l-19.15-22.82,19.14-22.8c.3-.37.02-1.03-.48-1.03h-9.54c-1.47,0-3.44.92-4.39,2.05-6.52,7.77-17.82,21.24-37.42,44.59-.3.36-.03,1.03.48,1.03h9.52c1.48,0,3.44-.92,4.4-2.05"/>
        <path class="cls-1" d="M106.3,9.98c0-.89-.72-1.61-1.61-1.61h-9.66c-.9,0-1.62.72-1.62,1.61v39.62c0,3.56,2.89,6.45,6.44,6.45h26.65c1.85,0,3.28-.71,4.39-2.05l6.06-7.22c.31-.37.03-1.03-.47-1.03h-28.58c-.89,0-1.61-.73-1.61-1.61V9.98Z"/>
        <path class="cls-3" d="M68.19,45.38l-16.57-12.05c-1.32-.96-2.59-1.16-4.03.22l-16.69,16.1c-.7.67-1.88.41-1.88-.75V0H12.9v42.33c0,1.68.97,3.38,2.16,4.25l11.78,8.57c1.58,1.15,3.99,1.26,5.33-.03l11.68-11.26c.54-.51,1.45-.57,2.05-.14l15.71,11.43c1.66,1.21,4.06,1.2,5.34-.02l7.14-6.88v-6.72l-3.85,3.71c-.53.51-1.45.57-2.05.14"/>
        <path class="cls-2" d="M67.64,0H29.02v48.9c0,1.15,1.19,1.42,1.88.75l16.69-16.1c1.44-1.38,2.71-1.18,4.03-.22l16.56,12.05c.6.44,1.52.37,2.05-.14l3.84-3.71V6.44c0-3.56-2.88-6.44-6.44-6.44"/>
        <path class="cls-2" d="M61.61,55.14l-15.71-11.43c-.6-.43-1.51-.37-2.04.14l-11.69,11.26c-1.34,1.29-3.75,1.18-5.33.03l-11.78-8.57c-1.19-.87-2.16-2.57-2.16-4.25V0h-6.45C2.88,0,0,2.88,0,6.44v51.54c0,3.56,2.88,6.44,6.44,6.44h61.2c3.56,0,6.44-2.88,6.44-6.44v-9.73l-7.14,6.88c-1.28,1.23-3.68,1.23-5.34.02"/>
      </g>
    </g>
  </g>
</svg>