<?xml version="1.0" encoding="iso-8859-1"?>
<!-- Uploaded to: SVG Repo, www.svgrepo.com, Generator: SVG Repo Mixer Tools -->
<svg height="800px" width="800px" version="1.1" id="Layer_1" xmlns="http://www.w3.org/2000/svg" xmlns:xlink="http://www.w3.org/1999/xlink" 
	 viewBox="0 0 512 512" xml:space="preserve">
<g transform="translate(1 1)">
	<g>
		<path style="fill:#FFE100;" d="M400.067,7.533V408.6c0,33.28-26.453,59.733-59.733,59.733H229.4
			c-33.28,0-59.733-26.453-59.733-59.733l0,0v-76.8h-34.133v76.8l0,0c0,52.053,41.813,93.867,93.867,93.867h110.933
			c52.053,0,93.867-41.813,93.867-93.867V7.533H400.067z"/>
		<polygon style="fill:#FFE100;" points="195.267,331.8 109.933,331.8 75.8,203.8 75.8,109.933 229.4,109.933 229.4,203.8 		"/>
	</g>
	<polygon style="fill:#FFA800;" points="212.333,109.933 212.333,203.8 178.2,331.8 195.267,331.8 229.4,203.8 229.4,109.933 	"/>
	<polygon style="fill:#FFFFFF;" points="92.867,109.933 92.867,203.8 127,331.8 109.933,331.8 75.8,203.8 75.8,109.933 	"/>
	<path style="fill:#63D3FD;" d="M109.933,109.933c0,23.893,18.773,42.667,42.667,42.667s42.667-18.773,42.667-42.667H109.933z"/>
	<g>
		<polygon style="fill:#FFE100;" points="118.467,75.8 118.467,16.067 84.333,16.067 84.333,109.933 135.533,109.933 135.533,75.8 
					"/>
		<polygon style="fill:#FFE100;" points="186.733,16.067 186.733,75.8 169.667,75.8 169.667,109.933 220.867,109.933 
			220.867,16.067 		"/>
	</g>
	<polygon style="fill:#63D3FD;" points="118.467,7.533 118.467,75.8 135.533,75.8 135.533,109.933 169.667,109.933 169.667,75.8 
		186.733,75.8 186.733,7.533 	"/>
	<path d="M195.267,340.333h-85.333c-3.413,0-6.827-2.56-8.533-5.973L67.267,223.427c0-0.853,0-1.707,0-2.56V109.933
		c0-5.12,3.413-8.533,8.533-8.533h153.6c5.12,0,8.533,3.413,8.533,8.533v110.933c0,0.853,0,1.707,0,2.56L203.8,334.36
		C202.093,337.773,198.68,340.333,195.267,340.333z M115.907,323.267h72.533l32.427-103.253V118.467H84.333V219.16L115.907,323.267z
		"/>
	<path d="M152.6,161.133c-28.16,0-51.2-23.04-51.2-51.2c0-5.12,3.413-8.533,8.533-8.533h85.333c5.12,0,8.533,3.413,8.533,8.533
		C203.8,138.093,180.76,161.133,152.6,161.133z M119.32,118.467c3.413,14.507,17.067,25.6,33.28,25.6s29.013-11.093,33.28-25.6
		H119.32z"/>
	<path d="M169.667,118.467h-34.133c-5.12,0-8.533-3.413-8.533-8.533v-25.6h-8.533c-5.12,0-8.533-3.413-8.533-8.533V7.533
		c0-5.12,3.413-8.533,8.533-8.533h68.267c5.12,0,8.533,3.413,8.533,8.533V75.8c0,5.12-3.413,8.533-8.533,8.533H178.2v25.6
		C178.2,115.053,174.787,118.467,169.667,118.467z M144.067,101.4h17.067V75.8c0-5.12,3.413-8.533,8.533-8.533h8.533v-51.2H127v51.2
		h8.533c5.12,0,8.533,3.413,8.533,8.533V101.4z"/>
	<path d="M135.533,118.467h-51.2c-5.12,0-8.533-3.413-8.533-8.533V16.067c0-5.12,3.413-8.533,8.533-8.533h34.133
		c5.12,0,8.533,3.413,8.533,8.533v51.2h8.533c5.12,0,8.533,3.413,8.533,8.533v34.133
		C144.067,115.053,140.653,118.467,135.533,118.467z M92.867,101.4H127V84.333h-8.533c-5.12,0-8.533-3.413-8.533-8.533V24.6H92.867
		V101.4z"/>
	<path d="M220.867,118.467h-51.2c-5.12,0-8.533-3.413-8.533-8.533V75.8c0-5.12,3.413-8.533,8.533-8.533h8.533v-51.2
		c0-5.12,3.413-8.533,8.533-8.533h34.133c5.12,0,8.533,3.413,8.533,8.533v93.867C229.4,115.053,225.987,118.467,220.867,118.467z
		 M178.2,101.4h34.133V24.6h-17.067v51.2c0,5.12-3.413,8.533-8.533,8.533H178.2V101.4z"/>
	<path d="M127,306.2H99.693c-5.12,0-8.533-3.413-8.533-8.533s3.413-8.533,8.533-8.533H127c5.12,0,8.533,3.413,8.533,8.533
		S132.12,306.2,127,306.2z"/>
	<path d="M205.507,306.2H178.2c-5.12,0-8.533-3.413-8.533-8.533s3.413-8.533,8.533-8.533h27.307c5.12,0,8.533,3.413,8.533,8.533
		S210.627,306.2,205.507,306.2z"/>
	<path d="M127,272.067H88.6c-5.12,0-8.533-3.413-8.533-8.533c0-5.12,3.413-8.533,8.533-8.533H127c5.12,0,8.533,3.413,8.533,8.533
		C135.533,268.653,132.12,272.067,127,272.067z"/>
	<path d="M216.6,272.067h-38.4c-5.12,0-8.533-3.413-8.533-8.533c0-5.12,3.413-8.533,8.533-8.533h38.4
		c5.12,0,8.533,3.413,8.533,8.533C225.133,268.653,220.867,272.067,216.6,272.067z"/>
	<path d="M127,237.933H78.36c-5.12,0-8.533-3.413-8.533-8.533c0-5.12,3.413-8.533,8.533-8.533H127c5.12,0,8.533,3.413,8.533,8.533
		C135.533,234.52,132.12,237.933,127,237.933z"/>
	<path d="M226.84,237.933H178.2c-5.12,0-8.533-3.413-8.533-8.533c0-5.12,3.413-8.533,8.533-8.533h48.64
		c5.12,0,8.533,3.413,8.533,8.533C235.373,234.52,231.107,237.933,226.84,237.933z"/>
	<path d="M127,203.8H75.8c-5.12,0-8.533-3.413-8.533-8.533c0-5.12,3.413-8.533,8.533-8.533H127c5.12,0,8.533,3.413,8.533,8.533
		C135.533,200.387,132.12,203.8,127,203.8z"/>
	<path d="M229.4,203.8h-51.2c-5.12,0-8.533-3.413-8.533-8.533c0-5.12,3.413-8.533,8.533-8.533h51.2c5.12,0,8.533,3.413,8.533,8.533
		C237.933,200.387,234.52,203.8,229.4,203.8z"/>
	<path d="M229.4,511L229.4,511C173.08,511,127,464.92,127,408.6v-76.8c0-5.12,3.413-8.533,8.533-8.533h34.133
		c5.12,0,8.533,3.413,8.533,8.533v76.8c0,28.16,23.04,51.2,51.2,51.2h110.933c28.16,0,51.2-23.04,51.2-51.2V7.533
		c0-5.12,3.413-8.533,8.533-8.533H434.2c5.12,0,8.533,3.413,8.533,8.533V408.6c0,56.32-46.08,102.4-102.4,102.4H229.4z
		 M144.067,340.333V408.6c0,46.933,38.4,85.333,85.333,85.333h110.933c46.933,0,85.333-38.4,85.333-85.333V16.067H408.6V408.6
		c0,37.547-30.72,68.267-68.267,68.267H229.4c-37.547,0-68.267-30.72-68.267-68.267v-68.267H144.067z"/>
</g>
</svg>