<?xml version="1.0" encoding="iso-8859-1"?>
<!-- Uploaded to: SVG Repo, www.svgrepo.com, Generator: SVG Repo Mixer Tools -->
<svg height="800px" width="800px" version="1.1" id="Layer_1" xmlns="http://www.w3.org/2000/svg" xmlns:xlink="http://www.w3.org/1999/xlink" 
	 viewBox="0 0 503.607 503.607" xml:space="preserve">
<g transform="translate(1 1)">
	<path style="fill:#FFE100;" d="M292.77,242.41h-83.934v-58.754c0-5.036,3.357-8.393,8.393-8.393h67.148
		c5.036,0,8.393,3.357,8.393,8.393V242.41z"/>
	<path style="fill:#FFA800;" d="M284.377,175.262h-25.18c5.036,0,8.393,3.357,8.393,8.393v58.754h25.18v-58.754
		C292.77,179.459,289.413,175.262,284.377,175.262"/>
	<path style="fill:#FFFFFF;" d="M217.229,175.262h25.18c-5.036,0-8.393,3.357-8.393,8.393v58.754h-25.18v-58.754
		C208.836,179.459,212.193,175.262,217.229,175.262"/>
	<g>
		<path style="fill:#FFE100;" d="M275.984,494.213h-50.361c-5.036,0-8.393-3.357-8.393-8.393v-67.148h67.148v67.148
			C284.377,490.856,281.02,494.213,275.984,494.213"/>
		<path style="fill:#FFE100;" d="M175.262,242.41v109.115c0,34.413,26.02,67.148,41.967,67.148h67.148
			c15.948,0,41.967-32.734,41.967-67.148V242.41H175.262z"/>
	</g>
	<path style="fill:#FFA800;" d="M301.164,242.41v109.115c0,34.413-26.02,67.148-41.967,67.148h25.18
		c15.948,0,41.967-32.734,41.967-67.148V242.41H301.164z"/>
	<path style="fill:#FFFFFF;" d="M200.443,242.41v109.115c0,34.413,26.02,67.148,41.967,67.148h-25.18
		c-15.948,0-41.967-32.734-41.967-67.148V242.41H200.443z"/>
	<path style="fill:#FFE100;" d="M343.131,141.689H158.475c-9.233,0-16.787-7.554-16.787-16.787V24.18
		c0-9.233,7.554-16.787,16.787-16.787h184.656c9.233,0,16.787,7.554,16.787,16.787v100.721
		C359.918,134.134,352.364,141.689,343.131,141.689"/>
	<path style="fill:#FFA800;" d="M343.131,7.393h-16.787c9.233,0,16.787,7.554,16.787,16.787v100.721
		c0,9.233-7.554,16.787-16.787,16.787h16.787c9.233,0,16.787-7.554,16.787-16.787V24.18C359.918,14.948,352.364,7.393,343.131,7.393
		"/>
	<path style="fill:#FFFFFF;" d="M158.475,7.393h16.787c-9.233,0-16.787,7.554-16.787,16.787v100.721
		c0,9.233,7.554,16.787,16.787,16.787h-16.787c-9.233,0-16.787-7.554-16.787-16.787V24.18
		C141.689,14.948,149.243,7.393,158.475,7.393"/>
	<path style="fill:#63D3FD;" d="M288.574,108.115h-75.541c-2.518,0-5.036-1.679-6.715-3.357l-11.751-18.466
		c-1.679-1.679-4.197-3.357-6.715-3.357h-4.197c-5.036,0-8.393-3.357-8.393-8.393v-25.18c0-5.036,3.357-8.393,8.393-8.393h134.295
		c5.036,0,8.393,3.357,8.393,8.393v25.18c0,5.036-3.357,8.393-8.393,8.393h-4.197c-2.518,0-5.036,1.679-6.715,3.357l-11.751,17.626
		C293.61,106.436,291.092,108.115,288.574,108.115"/>
	<path d="M292.77,250.803h-83.934c-5.036,0-8.393-3.357-8.393-8.393v-58.754c0-9.233,7.554-16.787,16.787-16.787h67.148
		c9.233,0,16.787,7.554,16.787,16.787v58.754C301.164,247.446,297.807,250.803,292.77,250.803z M217.229,234.016h67.148v-50.361
		h-67.148V234.016z"/>
	<path d="M275.984,502.607h-50.361c-9.233,0-16.787-7.554-16.787-16.787v-67.148c0-5.036,3.357-8.393,8.393-8.393h67.148
		c5.036,0,8.393,3.357,8.393,8.393v67.148C292.77,495.052,285.216,502.607,275.984,502.607z M275.984,485.82v8.393V485.82
		L275.984,485.82z M225.623,427.066v58.754h50.361v-58.754H225.623z"/>
	<path d="M292.77,469.033h-83.934c-5.036,0-8.393-3.357-8.393-8.393c0-5.036,3.357-8.393,8.393-8.393h83.934
		c5.036,0,8.393,3.357,8.393,8.393C301.164,465.675,297.807,469.033,292.77,469.033z"/>
	<path d="M284.377,427.066h-67.148c-21.823,0-50.361-36.931-50.361-75.541V242.41c0-5.036,3.357-8.393,8.393-8.393h151.082
		c5.036,0,8.393,3.357,8.393,8.393v109.115C334.738,390.134,306.2,427.066,284.377,427.066z M183.656,250.803v100.721
		c0,31.895,24.341,58.754,33.574,58.754h67.148c9.233,0,33.574-26.859,33.574-58.754V250.803H183.656z"/>
	<path d="M292.77,343.131h-83.934c-5.036,0-8.393-3.357-8.393-8.393c0-5.036,3.357-8.393,8.393-8.393h83.934
		c5.036,0,8.393,3.357,8.393,8.393C301.164,339.774,297.807,343.131,292.77,343.131z"/>
	<path d="M292.77,376.705h-83.934c-5.036,0-8.393-3.357-8.393-8.393c0-5.036,3.357-8.393,8.393-8.393h83.934
		c5.036,0,8.393,3.357,8.393,8.393C301.164,373.348,297.807,376.705,292.77,376.705z"/>
	<path d="M288.574,116.508h-75.541c-5.875,0-10.911-2.518-14.269-7.554l-10.911-17.626h-4.197c-9.233,0-16.787-7.554-16.787-16.787
		v-25.18c0-9.233,7.554-16.787,16.787-16.787h134.295c9.233,0,16.787,7.554,16.787,16.787v25.18c0,9.233-7.554,16.787-16.787,16.787
		h-4.197l-11.751,17.626C299.485,113.99,293.61,116.508,288.574,116.508z M183.656,49.361v25.18h4.197
		c5.875,0,10.911,2.518,14.269,7.554l10.911,17.626h74.702l11.751-17.626c3.357-5.036,8.393-7.554,14.269-7.554h4.197v-25.18
		H183.656z"/>
	<path d="M250.803,66.148c-5.036,0-8.393-3.357-8.393-8.393V40.967c0-5.036,3.357-8.393,8.393-8.393s8.393,3.357,8.393,8.393v16.787
		C259.197,62.79,255.839,66.148,250.803,66.148z"/>
	<path d="M225.623,66.148c-5.036,0-8.393-3.357-8.393-8.393V40.967c0-5.036,3.357-8.393,8.393-8.393s8.393,3.357,8.393,8.393v16.787
		C234.016,62.79,230.659,66.148,225.623,66.148z"/>
	<path d="M200.443,66.148c-5.036,0-8.393-3.357-8.393-8.393V40.967c0-5.036,3.357-8.393,8.393-8.393s8.393,3.357,8.393,8.393v16.787
		C208.836,62.79,205.479,66.148,200.443,66.148z"/>
	<path d="M275.984,66.148c-5.036,0-8.393-3.357-8.393-8.393V40.967c0-5.036,3.357-8.393,8.393-8.393s8.393,3.357,8.393,8.393v16.787
		C284.377,62.79,281.02,66.148,275.984,66.148z"/>
	<path d="M301.164,66.148c-5.036,0-8.393-3.357-8.393-8.393V40.967c0-5.036,3.357-8.393,8.393-8.393s8.393,3.357,8.393,8.393v16.787
		C309.557,62.79,306.2,66.148,301.164,66.148z"/>
	<path d="M343.131,150.082H158.475c-14.269,0-25.18-10.911-25.18-25.18V24.18c0-14.269,10.911-25.18,25.18-25.18h184.656
		c14.269,0,25.18,10.911,25.18,25.18v100.721C368.311,139.17,357.4,150.082,343.131,150.082z M158.475,15.787
		c-5.036,0-8.393,4.197-8.393,8.393v100.721c0,5.036,3.357,8.393,8.393,8.393h184.656c5.036,0,8.393-3.357,8.393-8.393V24.18
		c0-5.036-3.357-8.393-8.393-8.393H158.475z"/>
</g>
</svg>